<?xml version="1.0" encoding="utf-8"?>
<!-- Generated by IcoMoon.io -->
<!DOCTYPE svg PUBLIC "-//W3C//DTD SVG 1.1//EN" "http://www.w3.org/Graphics/SVG/1.1/DTD/svg11.dtd">
<svg version="1.1" xmlns="http://www.w3.org/2000/svg" xmlns:xlink="http://www.w3.org/1999/xlink" width="28" height="23" viewBox="0 0 28 23">
<g>
</g>
	<path d="M27.6 2.723c-1.015 0.462-2.107 0.774-3.252 0.914 1.169-0.719 2.067-1.856 2.49-3.212-1.094 0.666-2.306 1.149-3.596 1.409-1.033-1.129-2.504-1.834-4.133-1.834-3.127 0-5.663 2.6-5.663 5.806 0 0.455 0.050 0.898 0.147 1.323-4.706-0.242-8.878-2.554-11.671-6.067-0.487 0.858-0.767 1.855-0.767 2.919 0 2.014 1 3.792 2.519 4.833-0.928-0.030-1.801-0.291-2.565-0.726-0.001 0.024-0.001 0.049-0.001 0.073 0 2.813 1.952 5.16 4.542 5.694-0.475 0.133-0.975 0.204-1.492 0.204-0.365 0-0.72-0.036-1.065-0.104 0.721 2.307 2.812 3.985 5.29 4.032-1.938 1.557-4.379 2.486-7.032 2.486-0.457 0-0.908-0.028-1.351-0.081 2.506 1.648 5.482 2.609 8.68 2.609 10.415 0 16.111-8.847 16.111-16.521 0-0.252-0.006-0.502-0.016-0.751 1.106-0.818 2.066-1.841 2.825-3.005h0z" fill="#cecbb4" />
</svg>
