<?xml version="1.0" encoding="utf-8"?>
<!-- Generator: Adobe Illustrator 17.0.0, SVG Export Plug-In . SVG Version: 6.00 Build 0)  -->
<!DOCTYPE svg PUBLIC "-//W3C//DTD SVG 1.1//EN" "http://www.w3.org/Graphics/SVG/1.1/DTD/svg11.dtd">
<svg version="1.1" id="Layer_1" xmlns="http://www.w3.org/2000/svg" xmlns:xlink="http://www.w3.org/1999/xlink" x="0px" y="0px"
	 width="339.797px" height="82.489px" viewBox="0 0 339.797 82.489" enable-background="new 0 0 339.797 82.489"
	 xml:space="preserve">
<g>
	<path fill="#114F36" d="M117.267,67.463l-4.359-4.348l-0.003-12.304l7.122-0.022l0.017,5.811c0.062,2.555,1.084,3.797,3.116,3.797
		c2.13-0.003,3.092-1.241,3.092-3.797v-8.83l-13.542-7.593l-0.003-18.504l4.211-4.221l11.786-0.007l4.62,4.606l0.006,10.864
		l-6.925,0.015l-0.017-4.813c0.061-2.409-0.975-3.667-3.077-3.732c-0.006,0-0.014,0-0.016,0c-1.149,0-1.908,0.266-2.409,0.782
		c-0.606,0.618-0.882,1.585-0.842,2.95v6.8l13.474,7.852l0.009,20.074l-4.618,4.618h-11.643V67.463z"/>
	<path fill="#114F36" d="M142.722,67.463l-0.017-49.999l15.208-0.017l5.344,5.333l0.006,18.558l-5.338,5.335l-8.101,0.007
		l0.02,20.783H142.722z M149.844,39.824c0,0,3.485-0.017,3.493-0.017c0.979,0,1.579-0.205,1.967-0.616
		c0.4-0.411,0.587-1.043,0.551-1.867V26.536c0.037-0.732-0.138-1.303-0.513-1.689c-0.415-0.437-1.1-0.659-2.03-0.659h-3.469
		L149.844,39.824L149.844,39.824z"/>
	<path fill="#114F36" d="M182.912,67.463l-0.606-6.657l-5.248,0.018l-0.57,6.624l-7.386,0.015l5.314-49.999l9.617-0.017
		l6.006,50.016L182.912,67.463L182.912,67.463z M177.536,53.97l3.992-0.021l-2.169-22.053L177.536,53.97z"/>
	<path fill="#114F36" d="M212.515,67.463l-3.242-20.995l-2.812,0.012l0.012,20.968l-7.248,0.015l-0.012-49.999l15.011-0.017
		l5.272,5.267l0.007,18.496l-3.297,3.301l3.436,22.953L212.515,67.463L212.515,67.463z M206.473,39.562c0,0,3.485-0.014,3.491-0.014
		c1.678,0,2.466-0.793,2.527-2.353V26.409c-0.061-1.521-0.855-2.289-2.358-2.289l-3.66,0.001V39.562z"/>
	<polygon fill="#114F36" points="243.561,67.463 237.362,46.6 237.399,67.448 230.145,67.463 230.126,17.464 237.38,17.447 
		237.399,40.153 243.537,17.457 250.785,17.447 244.434,43.316 251.01,67.463 	"/>
	<path fill="#114F36" d="M259.282,67.463l-0.018-49.999l15.278-0.017l5.407,5.397v16.191l-3.291,3.3l3.291,3.26v16.59l-5.267,5.278
		h-15.399V67.463z M269.542,60.521c0.175,0.018,0.345,0.024,0.503,0.024c1.599,0,2.448-0.884,2.508-2.637v-9.402
		c0-1.718-0.921-2.554-2.806-2.554l-3.284,0.007v14.58L269.542,60.521z M266.463,39.103l3.097-0.02c1.121,0,1.841-0.252,2.309-0.746
		c0.521-0.549,0.751-1.418,0.684-2.589v-8.616c0.024-0.824-0.176-1.462-0.594-1.9c-0.46-0.477-1.2-0.718-2.199-0.718l-3.297,0.003
		V39.103z"/>
	<path fill="#114F36" d="M294.674,67.463l-5.212-5.199V22.592l5.132-5.139l10.072-0.007l5.545,5.529v38.748l-5.734,5.739H294.674z
		 M299.933,24.121c-2.291,0.2-3.405,1.292-3.405,3.338v29.663c-0.03,1.045,0.23,1.863,0.775,2.436
		c0.563,0.606,1.455,0.93,2.63,0.963c2.363-0.127,3.533-1.272,3.474-3.399V27.459C303.212,25.445,302.036,24.321,299.933,24.121z"/>
	<path fill="#114F36" d="M316.914,17.464h7.363l4.539,12.956l3.806-12.956h6.975l-7.102,23.673l7.302,26.311h-7.175l-4.006-14.338
		l-4.272,14.338h-7.169l8.09-26.239L316.914,17.464z"/>
</g>
<g>
	<polygon fill="#114F36" points="25.803,24.134 25.803,33.458 39.631,24.134 	"/>
	<path fill="#114F36" d="M53.63,32.33c0.012,0,0.03,0.002,0.041,0.002c2.265,0,4.1-1.835,4.1-4.1c0-2.264-1.835-4.097-4.1-4.097
		c-0.01,0-0.029,0.002-0.041,0.002h-1.014l-4.833,8.195L53.63,32.33z"/>
	<polygon fill="#114F36" points="25.803,50.106 25.803,58.302 28.433,58.302 33.261,50.106 	"/>
	<path fill="#114F36" d="M79.386,0H3.103C1.396,0,0,1.396,0,3.103v76.283c0,1.706,1.396,3.103,3.103,3.103h76.282
		c1.706,0,3.103-1.396,3.103-3.103V3.103C82.488,1.396,81.092,0,79.386,0z M66.873,40.296l-10.248,6.91
		c2.729,1.151,4.641,3.854,4.641,7c0,4.193-3.4,7.593-7.595,7.593c-0.076,0-15.726,0-18.68,0l-12.693,8.562
		c-0.073,0.049-0.158,0.082-0.253,0.082c-0.239,0-0.436-0.198-0.436-0.436c0-0.094,0.027-0.173,0.075-0.243l4.692-7.972h-3.637
		c-0.237-0.003-0.427-0.194-0.427-0.43V47.047c0-0.243,0.196-0.436,0.435-0.436h15.884c0.234,0.006,0.419,0.199,0.419,0.436
		c0,0.097-0.035,0.176-0.083,0.254l-7.426,12.611l25.13-16.95h-38.71l-0.011,0.006h-4.817h-0.003c-0.243,0-0.44-0.194-0.44-0.433
		c0-0.161,0.09-0.3,0.22-0.377l9.402-6.342V24.133v-3.059v-0.02c0.01-0.232,0.201-0.415,0.433-0.415h22.064l9.648-6.504l0.003-0.007
		l5.129-3.459v0.001c0.069-0.05,0.154-0.079,0.247-0.079c0.241,0,0.436,0.196,0.436,0.437c0,0.089-0.027,0.173-0.078,0.245
		l-5.548,9.424c3.735,0.476,6.624,3.667,6.624,7.533c0,4.193-3.4,7.594-7.595,7.594c-0.044,0-0.086-0.001-0.133-0.003h-7.812v0.003
		h-3.289v-0.001c-0.243,0-0.438-0.194-0.438-0.435c0-0.078,0.023-0.147,0.053-0.209l8.28-14.052L23.14,39.47h38.708h4.825
		c0.243,0,0.436,0.196,0.436,0.436C67.107,40.077,67.014,40.223,66.873,40.296z"/>
	<path fill="#114F36" d="M53.671,50.109h-1.347l-12.148,8.194h13.495c2.265,0,4.1-1.837,4.1-4.096
		C57.771,51.942,55.936,50.109,53.671,50.109z"/>
</g>
</svg>
